<svg xmlns="http://www.w3.org/2000/svg" viewBox="0 0 32 32" width="32" height="32" role="img" aria-label="Nhân Lực">
  <rect width="32" height="32" rx="7" fill="#1c6fd2"/>
  <g fill="none" stroke="#fff" stroke-width="2" stroke-linecap="round">
    <path d="M7 12V9a2 2 0 0 1 2-2h3"/>
    <path d="M20 7h3a2 2 0 0 1 2 2v3"/>
    <path d="M25 20v3a2 2 0 0 1-2 2h-3"/>
    <path d="M12 25H9a2 2 0 0 1-2-2v-3"/>
  </g>
  <circle cx="16" cy="13.6" r="3" fill="#fff"/>
  <path d="M11.6 22a4.4 4.4 0 0 1 8.8 0z" fill="#fff"/>
</svg>
